<svg width="51" height="50" viewBox="0 0 51 50" fill="none" xmlns="http://www.w3.org/2000/svg">
<path opacity="0.4" d="M34.2291 4.16669H16.7916C9.18746 4.16669 4.66663 8.68752 4.66663 16.2709V33.7084C4.66663 41.2917 9.18746 45.8125 16.7708 45.8125H34.2083C41.7916 45.8125 46.3125 41.2917 46.3125 33.7084V16.2709C46.3333 8.68752 41.8125 4.16669 34.2291 4.16669Z" fill="#5D6165"/>
<path d="M29.499 17.6668H18.7697L19.4572 16.9793C20.0614 16.3752 20.0614 15.3752 19.4572 14.771C18.853 14.1668 17.853 14.1668 17.2489 14.771L13.978 18.0418C13.3739 18.646 13.3739 19.646 13.978 20.2502L17.2489 23.5211C17.5614 23.8336 17.9572 23.9794 18.353 23.9794C18.7489 23.9794 19.1447 23.8336 19.4572 23.5211C20.0614 22.9169 20.0614 21.9169 19.4572 21.3127L18.9155 20.771H29.499C32.1656 20.771 34.3531 22.9377 34.3531 25.6252C34.3531 28.3127 32.1863 30.4794 29.499 30.4794H19.2489C18.3947 30.4794 17.6864 31.1877 17.6864 32.0419C17.6864 32.8961 18.3947 33.6044 19.2489 33.6044H29.499C33.8948 33.6044 37.4781 30.0211 37.4781 25.6252C37.4781 21.2294 33.8948 17.6668 29.499 17.6668Z" fill="#676767"/>
</svg>
