<svg width="40" height="42" viewBox="0 0 40 42" fill="none" xmlns="http://www.w3.org/2000/svg">
<path d="M16.7121 38.2102H8.37879C5.67854 38.2003 3.4892 36.0191 3.46937 33.3189V16.7428C3.47467 15.8389 3.87915 14.9835 4.57444 14.4058L6.04183 13.3189C6.57754 12.7481 6.63201 11.8772 6.1716 11.2441C5.71118 10.611 4.86583 10.3945 4.15777 10.7283L2.65415 11.8515C1.1374 13.0251 0.23732 14.8253 0.208496 16.7428V33.337C0.218459 37.8452 3.87059 41.4973 8.37879 41.5073H16.7121C17.6126 41.5073 18.3426 40.7773 18.3426 39.8769C18.3426 38.9764 17.6126 38.2464 16.7121 38.2464V38.2102Z" fill="#200E32"/>
<path d="M39.3572 16.7066C39.3382 14.8031 38.4674 13.0083 36.984 11.8153L24.4659 1.83342C21.7151 -0.377742 17.7965 -0.377742 15.0456 1.83342L11.0783 4.71386C10.3329 5.24913 10.1625 6.28731 10.6978 7.0327C11.2331 7.77808 12.2713 7.94841 13.0167 7.41313L17.0384 4.40588C18.6169 3.10631 20.8947 3.10631 22.4732 4.40588L34.9913 14.3878C35.7118 14.9589 36.1375 15.8236 36.1507 16.7428V33.337C36.1507 36.0384 33.9608 38.2283 31.2594 38.2283H27.5456C27.1654 38.2283 26.8572 37.9201 26.8572 37.5399V30.0581C26.8573 27.6739 24.9298 25.7383 22.5456 25.7283H17.1109C15.9626 25.7283 14.8613 26.1845 14.0493 26.9965C13.2373 27.8085 12.7812 28.9097 12.7812 30.0581V32.9204C12.7812 33.8208 13.5111 34.5508 14.4116 34.5508C15.3121 34.5508 16.042 33.8208 16.042 32.9204V30.0581C16.0372 29.7763 16.1457 29.5043 16.3433 29.3033C16.5409 29.1024 16.8109 28.9892 17.0927 28.9892H22.5275C23.1078 28.9892 23.5783 29.4596 23.5783 30.0399V37.5399C23.5882 39.724 25.3616 41.4892 27.5456 41.4892H31.1688C35.6812 41.4892 39.3391 37.8313 39.3391 33.3189L39.3572 16.7066Z" fill="#200E32"/>
</svg>
