<svg width="43" height="42" viewBox="0 0 43 42" fill="none" xmlns="http://www.w3.org/2000/svg">
<path opacity="0.4" d="M30.2291 0.166626H12.7916C5.18746 0.166626 0.666626 4.68746 0.666626 12.2708V29.7083C0.666626 37.2916 5.18746 41.8125 12.7708 41.8125H30.2083C37.7916 41.8125 42.3125 37.2916 42.3125 29.7083V12.2708C42.3333 4.68746 37.8125 0.166626 30.2291 0.166626Z" fill="#5D6165"/>
<path d="M25.499 13.6667H14.7697L15.4572 12.9792C16.0614 12.375 16.0614 11.375 15.4572 10.7709C14.853 10.1667 13.853 10.1667 13.2489 10.7709L9.97803 14.0417C9.37386 14.6459 9.37386 15.6459 9.97803 16.25L13.2489 19.521C13.5614 19.8335 13.9572 19.9793 14.353 19.9793C14.7489 19.9793 15.1447 19.8335 15.4572 19.521C16.0614 18.9168 16.0614 17.9168 15.4572 17.3126L14.9155 16.7709H25.499C28.1656 16.7709 30.3531 18.9376 30.3531 21.6251C30.3531 24.3126 28.1863 26.4793 25.499 26.4793H15.2489C14.3947 26.4793 13.6864 27.1876 13.6864 28.0418C13.6864 28.896 14.3947 29.6043 15.2489 29.6043H25.499C29.8948 29.6043 33.4781 26.021 33.4781 21.6251C33.4781 17.2293 29.8948 13.6667 25.499 13.6667Z" fill="#676767"/>
</svg>
