<svg width="30" height="42" viewBox="0 0 30 42" fill="none" xmlns="http://www.w3.org/2000/svg">
<path d="M29.3572 16.7066C29.3382 14.8031 28.4674 13.0083 26.984 11.8153L14.4659 1.83337C11.7151 -0.377788 7.79648 -0.377788 5.04565 1.83337L1.07825 4.71381C0.332869 5.24909 0.162542 6.28727 0.697818 7.03265C1.23309 7.77803 2.27128 7.94836 3.01666 7.41308L7.0384 4.40584C8.61693 3.10627 10.8947 3.10627 12.4732 4.40584L24.9913 14.3877C25.7118 14.9588 26.1375 15.8235 26.1507 16.7428V33.337C26.1507 36.0384 23.9608 38.2283 21.2594 38.2283H17.5456C17.1654 38.2283 16.8572 37.9201 16.8572 37.5399V30.058C16.8573 27.6738 14.9298 25.7383 12.5456 25.7283H7.11086C5.96255 25.7283 4.86127 26.1845 4.04929 26.9964C3.23732 27.8084 2.78115 28.9097 2.78115 30.058V32.9203C2.78115 33.8208 3.51112 34.5508 4.41159 34.5508C5.31205 34.5508 6.04202 33.8208 6.04202 32.9203V30.058C6.03716 29.7762 6.14571 29.5043 6.34329 29.3033C6.54087 29.1023 6.81091 28.9891 7.09275 28.9892H12.5275C13.1078 28.9892 13.5783 29.4596 13.5783 30.0399V37.5399C13.5882 39.7239 15.3616 41.4892 17.5456 41.4892H21.1688C25.6812 41.4892 29.3391 37.8312 29.3391 33.3189L29.3572 16.7066Z" fill="#200E32"/>
</svg>
