<svg width="19" height="32" viewBox="0 0 19 32" fill="none" xmlns="http://www.w3.org/2000/svg">
<path d="M16.7121 28.2102H8.37879C5.67854 28.2003 3.4892 26.0191 3.46937 23.3189V6.7428C3.47467 5.83888 3.87915 4.9835 4.57444 4.40585L6.04183 3.31889C6.57754 2.74812 6.63201 1.87718 6.1716 1.24411C5.71118 0.611038 4.86583 0.394519 4.15777 0.728309L2.65415 1.8515C1.1374 3.02508 0.23732 4.82525 0.208496 6.7428V23.337C0.218459 27.8452 3.87059 31.4973 8.37879 31.5073H16.7121C17.6126 31.5073 18.3426 30.7773 18.3426 29.8769C18.3426 28.9764 17.6126 28.2464 16.7121 28.2464V28.2102Z" fill="#200E32"/>
</svg>
